<?xml version="1.0" encoding="UTF-8" standalone="no"?><!-- Generator: Gravit.io --><svg xmlns="http://www.w3.org/2000/svg" xmlns:xlink="http://www.w3.org/1999/xlink" style="isolation:isolate" viewBox="0 0 788.537 605" width="788.537pt" height="605pt"><defs><clipPath id="_clipPath_BRw2tuJUfyUosDF2aSF3DwP9QPt4WtvM"><rect width="788.537" height="605"/></clipPath></defs><g clip-path="url(#_clipPath_BRw2tuJUfyUosDF2aSF3DwP9QPt4WtvM)"><g><g><radialGradient id="_rgradient_0" fx="0.5" fy="0.5" cx="0.5" cy="0.5" r="0.5" gradientTransform="matrix(741.574,0,0,605,23.481,0)" gradientUnits="userSpaceOnUse"><stop offset="15.833333333333332%" stop-opacity="1" style="stop-color:rgb(80,53,95)"/><stop offset="100%" stop-opacity="1" style="stop-color:rgb(0,0,0)"/></radialGradient><rect x="23.481" y="0" width="741.574" height="605" transform="matrix(1,0,0,1,0,0)" fill="url(#_rgradient_0)"/><defs><filter id="953HRA8YwvS9DHypVIhNy5I6KS08EVXp" x="-200%" y="-200%" width="400%" height="400%" filterUnits="objectBoundingBox" color-interpolation-filters="sRGB"><feGaussianBlur xmlns="http://www.w3.org/2000/svg" in="SourceGraphic" stdDeviation="2.146804531419514"/><feOffset xmlns="http://www.w3.org/2000/svg" dx="0" dy="1" result="pf_100_offsetBlur"/><feFlood xmlns="http://www.w3.org/2000/svg" flood-color="#000000" flood-opacity="1"/><feComposite xmlns="http://www.w3.org/2000/svg" in2="pf_100_offsetBlur" operator="in" result="pf_100_dropShadow"/><feBlend xmlns="http://www.w3.org/2000/svg" in="SourceGraphic" in2="pf_100_dropShadow" mode="normal"/></filter></defs><g filter="url(#953HRA8YwvS9DHypVIhNy5I6KS08EVXp)"><mask id="_mask_IsGf9yaoBfF8ZEiEDXMc2xFeBLkyLZKg"><path d=" M 464.097 442.962 L 401.96 442.962 L 339.822 442.962 C 330.149 442.962 318.37 436.161 313.533 427.784 L 282.465 373.971 L 251.396 320.159 C 246.559 311.782 246.559 298.18 251.396 289.803 L 282.465 235.99 L 313.533 182.178 C 318.37 173.801 330.149 167 339.822 167 L 401.96 167 L 464.097 167 C 473.77 167 485.55 173.801 490.386 182.178 L 521.455 235.99 L 552.523 289.803 C 557.36 298.18 557.36 311.782 552.523 320.159 L 521.455 373.971 L 490.386 427.784 C 485.55 436.161 473.77 442.962 464.097 442.962 Z " fill="white" stroke="none"/></mask><path d=" M 464.097 442.962 L 401.96 442.962 L 339.822 442.962 C 330.149 442.962 318.37 436.161 313.533 427.784 L 282.465 373.971 L 251.396 320.159 C 246.559 311.782 246.559 298.18 251.396 289.803 L 282.465 235.99 L 313.533 182.178 C 318.37 173.801 330.149 167 339.822 167 L 401.96 167 L 464.097 167 C 473.77 167 485.55 173.801 490.386 182.178 L 521.455 235.99 L 552.523 289.803 C 557.36 298.18 557.36 311.782 552.523 320.159 L 521.455 373.971 L 490.386 427.784 C 485.55 436.161 473.77 442.962 464.097 442.962 Z " fill="none"/><path d=" M 464.097 442.962 L 401.96 442.962 L 339.822 442.962 C 330.149 442.962 318.37 436.161 313.533 427.784 L 282.465 373.971 L 251.396 320.159 C 246.559 311.782 246.559 298.18 251.396 289.803 L 282.465 235.99 L 313.533 182.178 C 318.37 173.801 330.149 167 339.822 167 L 401.96 167 L 464.097 167 C 473.77 167 485.55 173.801 490.386 182.178 L 521.455 235.99 L 552.523 289.803 C 557.36 298.18 557.36 311.782 552.523 320.159 L 521.455 373.971 L 490.386 427.784 C 485.55 436.161 473.77 442.962 464.097 442.962 Z " fill="none" mask="url(#_mask_IsGf9yaoBfF8ZEiEDXMc2xFeBLkyLZKg)" vector-effect="non-scaling-stroke" stroke-width="2" stroke="rgb(0,0,0)" stroke-linejoin="miter" stroke-linecap="square" stroke-miterlimit="3"/><clipPath id="_clipPath_01gQK1IPFcikmfumn8oisZcQ363kciPr"><path d=" M 464.097 442.962 L 401.96 442.962 L 339.822 442.962 C 330.149 442.962 318.37 436.161 313.533 427.784 L 282.465 373.971 L 251.396 320.159 C 246.559 311.782 246.559 298.18 251.396 289.803 L 282.465 235.99 L 313.533 182.178 C 318.37 173.801 330.149 167 339.822 167 L 401.96 167 L 464.097 167 C 473.77 167 485.55 173.801 490.386 182.178 L 521.455 235.99 L 552.523 289.803 C 557.36 298.18 557.36 311.782 552.523 320.159 L 521.455 373.971 L 490.386 427.784 C 485.55 436.161 473.77 442.962 464.097 442.962 Z " fill="none"/><path d=" M 464.097 442.962 L 401.96 442.962 L 339.822 442.962 C 330.149 442.962 318.37 436.161 313.533 427.784 L 282.465 373.971 L 251.396 320.159 C 246.559 311.782 246.559 298.18 251.396 289.803 L 282.465 235.99 L 313.533 182.178 C 318.37 173.801 330.149 167 339.822 167 L 401.96 167 L 464.097 167 C 473.77 167 485.55 173.801 490.386 182.178 L 521.455 235.99 L 552.523 289.803 C 557.36 298.18 557.36 311.782 552.523 320.159 L 521.455 373.971 L 490.386 427.784 C 485.55 436.161 473.77 442.962 464.097 442.962 Z " fill="none" mask="url(#_mask_IsGf9yaoBfF8ZEiEDXMc2xFeBLkyLZKg)" vector-effect="non-scaling-stroke" stroke-width="2" stroke="rgb(0,0,0)" stroke-linejoin="miter" stroke-linecap="square" stroke-miterlimit="3"/></clipPath><g clip-path="url(#_clipPath_01gQK1IPFcikmfumn8oisZcQ363kciPr)"><circle vector-effect="non-scaling-stroke" cx="393.45223762875503" cy="396" r="50" fill="rgb(55,104,55)"/><path d=" M 370.008 394.599 C 370.008 367.004 392.412 344.599 420.008 344.599 C 447.604 344.599 532.769 399.404 532.769 427 C 532.769 454.596 447.604 444.599 420.008 444.599 C 392.412 444.599 370.008 422.195 370.008 394.599 Z " fill="rgb(100,170,100)"/><path d=" M 410.754 388.985 C 410.754 361.389 433.158 338.985 460.754 338.985 C 488.35 338.985 532.769 355.404 532.769 383 C 532.769 410.596 488.35 438.985 460.754 438.985 C 433.158 438.985 410.754 416.581 410.754 388.985 Z " fill="rgb(119,202,119)"/><circle vector-effect="non-scaling-stroke" cx="488.76857402537144" cy="338.98522710406655" r="50" fill="rgb(43,96,96)"/><path d=" M 453.658 313.271 C 453.658 285.676 476.062 263.271 503.658 263.271 C 531.254 263.271 564.769 264.404 564.769 292 C 564.769 319.596 531.254 363.271 503.658 363.271 C 476.062 363.271 453.658 340.867 453.658 313.271 Z " fill="rgb(80,151,151)"/><path d=" M 308.769 185 C 308.769 157.404 374.364 146.263 401.96 146.263 C 429.555 146.263 451.96 168.667 451.96 196.263 C 451.96 223.859 429.555 246.263 401.96 246.263 C 374.364 246.263 308.769 212.596 308.769 185 Z " fill="rgb(153,0,255)"/><path d=" M 510.367 214.729 C 531.404 220.632 546.849 239.965 546.849 262.878 C 546.849 290.474 524.445 312.878 496.849 312.878 C 471.377 312.878 450.328 293.789 447.236 269.149 C 451.537 270.355 456.071 271 460.754 271 C 488.35 271 510.754 248.596 510.754 221 C 510.754 218.876 510.621 216.784 510.367 214.729 Z " fill-rule="evenodd" fill="rgb(114,215,215)"/><circle vector-effect="non-scaling-stroke" cx="460.75380112943776" cy="221" r="50" fill="rgb(88,4,145)"/><circle vector-effect="non-scaling-stroke" cx="438.76857402537144" cy="202.00000000000006" r="50" fill="rgb(121,4,200)"/><circle vector-effect="non-scaling-stroke" cx="341.753801129438" cy="221" r="50" fill="rgb(89,18,18)"/><circle vector-effect="non-scaling-stroke" cx="311.76857402537144" cy="246.26307088729737" r="50" fill="rgb(166,61,61)"/><path d=" M 208.769 312.878 C 208.769 285.282 255.651 212.878 283.246 212.878 C 310.842 212.878 333.246 235.282 333.246 262.878 C 333.246 290.474 310.842 312.878 283.246 312.878 C 255.651 312.878 208.769 340.474 208.769 312.878 Z " fill="rgb(202,121,121)"/><circle vector-effect="non-scaling-stroke" cx="302.99346025898217" cy="325.92083765115115" r="50" fill="rgb(176,75,7)"/><circle vector-effect="non-scaling-stroke" cx="302.99346025898205" cy="344.599340717191" r="50" fill="rgb(217,135,13)"/><path d=" M 291.754 388.985 C 291.754 361.389 314.158 338.985 341.754 338.985 C 369.35 338.985 391.754 361.389 391.754 388.985 C 391.754 416.581 385.364 457 357.769 457 C 330.173 457 291.754 416.581 291.754 388.985 Z " fill="rgb(202,134,32)"/><defs><filter id="Z2J0bs0BaodS0wwm0lcvWd10tUlTbGQG" x="-200%" y="-200%" width="400%" height="400%" filterUnits="objectBoundingBox" color-interpolation-filters="sRGB"><feGaussianBlur xmlns="http://www.w3.org/2000/svg" in="SourceGraphic" stdDeviation="12.880827188517085"/><feOffset xmlns="http://www.w3.org/2000/svg" dx="0" dy="5" result="pf_100_offsetBlur"/><feFlood xmlns="http://www.w3.org/2000/svg" flood-color="#000000" flood-opacity="0.65"/><feComposite xmlns="http://www.w3.org/2000/svg" in2="pf_100_offsetBlur" operator="in" result="pf_100_dropShadow"/><feBlend xmlns="http://www.w3.org/2000/svg" in="SourceGraphic" in2="pf_100_dropShadow" mode="normal" result="_out_E0blPPbjdKV4Y2zPUxfh0WObUQnjUrQq"/><feOffset xmlns="http://www.w3.org/2000/svg" in="_out_E0blPPbjdKV4Y2zPUxfh0WObUQnjUrQq" dx="0" dy="0"/><feGaussianBlur xmlns="http://www.w3.org/2000/svg" stdDeviation="4.293609062839028" result="pf_101_offsetBlur"/><feComposite xmlns="http://www.w3.org/2000/svg" in="_out_E0blPPbjdKV4Y2zPUxfh0WObUQnjUrQq" in2="pf_101_offsetBlur" result="pf_101_inverse" operator="out"/><feFlood xmlns="http://www.w3.org/2000/svg" flood-color="#000000" flood-opacity="0.7" result="pf_101_color"/><feComposite xmlns="http://www.w3.org/2000/svg" in="pf_101_color" in2="pf_101_inverse" operator="in" result="pf_101_shadow"/><feComposite xmlns="http://www.w3.org/2000/svg" in="pf_101_shadow" in2="_out_E0blPPbjdKV4Y2zPUxfh0WObUQnjUrQq" operator="over" result="_out_cXWVIw2eTrbKbDqTczz1WPrS8VeYESNV"/><feMerge><feMergeNode in="_out_cXWVIw2eTrbKbDqTczz1WPrS8VeYESNV"/></feMerge></filter></defs><g filter="url(#Z2J0bs0BaodS0wwm0lcvWd10tUlTbGQG)"><path d=" M 505.356 271.385 L 453.658 321.779 L 465.862 392.936 L 401.96 359.34 L 338.057 392.936 L 350.261 321.779 L 298.563 271.385 L 370.008 261.004 L 401.96 196.263 L 433.911 261.004 L 505.356 271.385 Z " fill="rgb(46,30,54)"/></g></g><path d=" M 464.097 442.962 L 401.96 442.962 L 339.822 442.962 C 330.149 442.962 318.37 436.161 313.533 427.784 L 282.465 373.971 L 251.396 320.159 C 246.559 311.782 246.559 298.18 251.396 289.803 L 282.465 235.99 L 313.533 182.178 C 318.37 173.801 330.149 167 339.822 167 L 401.96 167 L 464.097 167 C 473.77 167 485.55 173.801 490.386 182.178 L 521.455 235.99 L 552.523 289.803 C 557.36 298.18 557.36 311.782 552.523 320.159 L 521.455 373.971 L 490.386 427.784 C 485.55 436.161 473.77 442.962 464.097 442.962 Z " fill="transparent" mask="url(#_mask_IsGf9yaoBfF8ZEiEDXMc2xFeBLkyLZKg)" vector-effect="non-scaling-stroke" stroke-width="2" stroke="rgb(0,0,0)" stroke-linejoin="miter" stroke-linecap="square" stroke-miterlimit="3"/></g><defs><filter id="WCHcvcR9G3fzG48wy9VLi0PbJLLe26mc" x="-200%" y="-200%" width="400%" height="400%" filterUnits="objectBoundingBox" color-interpolation-filters="sRGB"><feGaussianBlur xmlns="http://www.w3.org/2000/svg" in="SourceGraphic" stdDeviation="1.7174436251356113"/><feOffset xmlns="http://www.w3.org/2000/svg" dx="0" dy="3" result="pf_100_offsetBlur"/><feFlood xmlns="http://www.w3.org/2000/svg" flood-color="#000000" flood-opacity="0.5"/><feComposite xmlns="http://www.w3.org/2000/svg" in2="pf_100_offsetBlur" operator="in" result="pf_100_dropShadow"/><feBlend xmlns="http://www.w3.org/2000/svg" in="SourceGraphic" in2="pf_100_dropShadow" mode="normal"/></filter></defs><g filter="url(#WCHcvcR9G3fzG48wy9VLi0PbJLLe26mc)"><g clip-path="url(#_clipPath_CXeOBEc9jbAsGCTvlWJxwmh57hdc9BdP)"><text transform="matrix(1,0,0,1,137.845,536.49)" style="font-family:'Yellowtail';font-weight:400;font-size:117px;font-style:normal;fill:#ffffff;stroke:none;">Dalen Villa </text></g><defs><clipPath id="_clipPath_CXeOBEc9jbAsGCTvlWJxwmh57hdc9BdP"><rect x="0" y="0" width="741.574" height="155.196" transform="matrix(1,0,0,1,23.481,422.804)"/></clipPath></defs></g></g></g></g></svg>