<svg xmlns="http://www.w3.org/2000/svg" xmlns:xlink="http://www.w3.org/1999/xlink" width="400" zoomAndPan="magnify" viewBox="0 0 300 112.499997" height="150" preserveAspectRatio="xMidYMid meet" version="1.0"><defs><g/><clipPath id="f507fdf8f1"><path d="M 6.773438 2.0625 L 114.292969 2.0625 L 114.292969 109.582031 L 6.773438 109.582031 Z M 6.773438 2.0625 " clip-rule="nonzero"/></clipPath><clipPath id="2b2c51b1aa"><path d="M 10.210938 5.5 L 111.011719 5.5 L 111.011719 106.300781 L 10.210938 106.300781 Z M 10.210938 5.5 " clip-rule="nonzero"/></clipPath><clipPath id="5cb5effa1b"><path d="M 33.761719 40 L 48 40 L 48 53 L 33.761719 53 Z M 33.761719 40 " clip-rule="nonzero"/></clipPath><clipPath id="29be2874e2"><path d="M 73 40 L 87.523438 40 L 87.523438 54 L 73 54 Z M 73 40 " clip-rule="nonzero"/></clipPath><clipPath id="1c1b7f3121"><path d="M 41 55 L 80 55 L 80 99.582031 L 41 99.582031 Z M 41 55 " clip-rule="nonzero"/></clipPath><clipPath id="ffaa8c0df9"><path d="M 40 54 L 81 54 L 81 99.582031 L 40 99.582031 Z M 40 54 " clip-rule="nonzero"/></clipPath><clipPath id="8b47100cd9"><path d="M 37 18.195312 L 84 18.195312 L 84 45 L 37 45 Z M 37 18.195312 " clip-rule="nonzero"/></clipPath></defs><g clip-path="url(#f507fdf8f1)"><path fill="#ffed80" d="M 60.53125 2.0625 C 30.839844 2.0625 6.773438 26.128906 6.773438 55.820312 C 6.773438 85.511719 30.839844 109.582031 60.53125 109.582031 C 90.222656 109.582031 114.292969 85.511719 114.292969 55.820312 C 114.292969 26.128906 90.222656 2.0625 60.53125 2.0625 " fill-opacity="1" fill-rule="nonzero"/></g><g clip-path="url(#2b2c51b1aa)"><path fill="#ff66c4" d="M 60.613281 5.5 C 32.777344 5.5 10.210938 28.066406 10.210938 55.898438 C 10.210938 83.734375 32.777344 106.300781 60.613281 106.300781 C 88.449219 106.300781 111.011719 83.734375 111.011719 55.898438 C 111.011719 28.066406 88.449219 5.5 60.613281 5.5 " fill-opacity="1" fill-rule="nonzero"/></g><g clip-path="url(#5cb5effa1b)"><path fill="#ffffff" d="M 47.335938 46.65625 C 47.335938 50.097656 44.304688 52.890625 40.5625 52.890625 C 36.824219 52.890625 33.792969 50.097656 33.792969 46.65625 C 33.792969 43.210938 36.824219 40.421875 40.5625 40.421875 C 44.304688 40.421875 47.335938 43.210938 47.335938 46.65625 Z M 47.335938 46.65625 " fill-opacity="1" fill-rule="evenodd"/></g><path fill="#ffffff" d="M 55.457031 46.769531 C 55.457031 50.210938 52.425781 53 48.6875 53 C 44.949219 53 41.917969 50.210938 41.917969 46.769531 C 41.917969 43.324219 44.949219 40.535156 48.6875 40.535156 C 52.425781 40.535156 55.457031 43.324219 55.457031 46.769531 Z M 55.457031 46.769531 " fill-opacity="1" fill-rule="evenodd"/><path fill="#ffffff" d="M 63.625 46.9375 C 63.625 50.378906 60.59375 53.171875 56.855469 53.171875 C 53.117188 53.171875 50.085938 50.378906 50.085938 46.9375 C 50.085938 43.496094 53.117188 40.703125 56.855469 40.703125 C 60.59375 40.703125 63.625 43.496094 63.625 46.9375 Z M 63.625 46.9375 " fill-opacity="1" fill-rule="evenodd"/><path fill="#ffffff" d="M 71.75 47.050781 C 71.75 50.496094 68.71875 53.285156 64.980469 53.285156 C 61.242188 53.285156 58.210938 50.496094 58.210938 47.050781 C 58.210938 43.609375 61.242188 40.816406 64.980469 40.816406 C 68.71875 40.816406 71.75 43.609375 71.75 47.050781 Z M 71.75 47.050781 " fill-opacity="1" fill-rule="evenodd"/><path fill="#ffffff" d="M 79.378906 47.074219 C 79.378906 50.515625 76.347656 53.308594 72.609375 53.308594 C 68.871094 53.308594 65.839844 50.515625 65.839844 47.074219 C 65.839844 43.632812 68.871094 40.839844 72.609375 40.839844 C 76.347656 40.839844 79.378906 43.632812 79.378906 47.074219 Z M 79.378906 47.074219 " fill-opacity="1" fill-rule="evenodd"/><g clip-path="url(#29be2874e2)"><path fill="#ffffff" d="M 87.503906 47.1875 C 87.503906 50.628906 84.472656 53.421875 80.734375 53.421875 C 76.992188 53.421875 73.964844 50.628906 73.964844 47.1875 C 73.964844 43.742188 76.992188 40.953125 80.734375 40.953125 C 84.472656 40.953125 87.503906 43.742188 87.503906 47.1875 Z M 87.503906 47.1875 " fill-opacity="1" fill-rule="evenodd"/></g><g clip-path="url(#1c1b7f3121)"><path fill="#ffffff" d="M 41.117188 55.167969 L 58.875 98.566406 L 60.808594 99.460938 L 79.457031 55.472656 Z M 41.117188 55.167969 " fill-opacity="1" fill-rule="evenodd"/></g><g clip-path="url(#ffaa8c0df9)"><path stroke-linecap="butt" transform="matrix(0.157964, 0, 0, 0.158683, 13.144294, 12.736547)" fill="none" stroke-linejoin="miter" d="M 177.083711 267.398183 L 289.500375 540.890392 L 301.741081 546.52763 L 419.795888 269.318291 Z M 177.083711 267.398183 " stroke="#ffffff" stroke-width="1.157" stroke-opacity="1" stroke-miterlimit="4"/></g><g clip-path="url(#8b47100cd9)"><path fill="#ffffff" d="M 60.503906 18.191406 C 47.59375 18.191406 37.117188 29.019531 37.117188 42.363281 C 37.117188 43.101562 37.152344 43.835938 37.214844 44.558594 L 83.796875 44.558594 C 83.859375 43.835938 83.894531 43.101562 83.894531 42.363281 C 83.894531 29.019531 73.414062 18.191406 60.503906 18.191406 Z M 60.503906 18.191406 " fill-opacity="1" fill-rule="evenodd"/></g><g fill="#000000" fill-opacity="0.2392"><g transform="translate(131.635777, 74.942975)"><g><path d="M 5.609375 0 C 4.671875 0 3.859375 -0.335938 3.171875 -1.015625 C 2.492188 -1.703125 2.15625 -2.515625 2.15625 -3.453125 L 2.15625 -31.0625 C 2.15625 -32 2.492188 -32.804688 3.171875 -33.484375 C 3.859375 -34.171875 4.671875 -34.515625 5.609375 -34.515625 L 15.953125 -34.515625 C 18.328125 -34.515625 20.566406 -34.0625 22.671875 -33.15625 C 24.773438 -32.257812 26.609375 -31.03125 28.171875 -29.46875 C 29.734375 -27.90625 30.960938 -26.070312 31.859375 -23.96875 C 32.765625 -21.863281 33.21875 -19.625 33.21875 -17.25 C 33.21875 -14.882812 32.765625 -12.648438 31.859375 -10.546875 C 30.960938 -8.441406 29.734375 -6.609375 28.171875 -5.046875 C 26.609375 -3.484375 24.773438 -2.25 22.671875 -1.34375 C 20.566406 -0.445312 18.328125 0 15.953125 0 Z M 9.0625 -27.609375 L 9.0625 -6.90625 L 15.953125 -6.90625 C 17.398438 -6.90625 18.75 -7.171875 20 -7.703125 C 21.257812 -8.242188 22.359375 -8.984375 23.296875 -9.921875 C 24.234375 -10.859375 24.96875 -11.953125 25.5 -13.203125 C 26.039062 -14.460938 26.3125 -15.8125 26.3125 -17.25 C 26.3125 -18.6875 26.039062 -20.035156 25.5 -21.296875 C 24.96875 -22.554688 24.234375 -23.648438 23.296875 -24.578125 C 22.359375 -25.515625 21.257812 -26.253906 20 -26.796875 C 18.75 -27.335938 17.398438 -27.609375 15.953125 -27.609375 Z M 9.0625 -27.609375 "/></g></g></g><g fill="#000000" fill-opacity="0.2392"><g transform="translate(165.716161, 74.942975)"><g><path d="M 0.859375 -13.796875 C 0.859375 -15.703125 1.21875 -17.488281 1.9375 -19.15625 C 2.65625 -20.832031 3.644531 -22.300781 4.90625 -23.5625 C 6.164062 -24.820312 7.628906 -25.8125 9.296875 -26.53125 C 10.972656 -27.25 12.765625 -27.609375 14.671875 -27.609375 C 16.578125 -27.609375 18.363281 -27.25 20.03125 -26.53125 C 21.707031 -25.8125 23.171875 -24.820312 24.421875 -23.5625 C 25.679688 -22.300781 26.671875 -20.832031 27.390625 -19.15625 C 28.109375 -17.488281 28.46875 -15.703125 28.46875 -13.796875 C 28.46875 -12.546875 28.304688 -11.351562 27.984375 -10.21875 C 27.660156 -9.082031 27.210938 -7.992188 26.640625 -6.953125 C 27.316406 -6.671875 27.863281 -6.210938 28.28125 -5.578125 C 28.695312 -4.953125 28.90625 -4.242188 28.90625 -3.453125 C 28.90625 -2.367188 28.523438 -1.445312 27.765625 -0.6875 C 27.015625 0.0625 26.097656 0.4375 25.015625 0.4375 C 24.222656 0.4375 23.515625 0.226562 22.890625 -0.1875 C 22.265625 -0.601562 21.785156 -1.148438 21.453125 -1.828125 C 19.410156 -0.609375 17.148438 0 14.671875 0 C 12.765625 0 10.972656 -0.359375 9.296875 -1.078125 C 7.628906 -1.796875 6.164062 -2.785156 4.90625 -4.046875 C 3.644531 -5.304688 2.65625 -6.769531 1.9375 -8.4375 C 1.21875 -10.113281 0.859375 -11.898438 0.859375 -13.796875 Z M 7.765625 -13.796875 C 7.765625 -12.828125 7.941406 -11.929688 8.296875 -11.109375 C 8.660156 -10.285156 9.15625 -9.554688 9.78125 -8.921875 C 10.414062 -8.296875 11.144531 -7.800781 11.96875 -7.4375 C 12.789062 -7.082031 13.691406 -6.90625 14.671875 -6.90625 C 15.640625 -6.90625 16.535156 -7.082031 17.359375 -7.4375 C 18.191406 -7.800781 18.921875 -8.296875 19.546875 -8.921875 C 20.171875 -9.554688 20.660156 -10.285156 21.015625 -11.109375 C 21.378906 -11.929688 21.5625 -12.828125 21.5625 -13.796875 C 21.5625 -14.773438 21.378906 -15.675781 21.015625 -16.5 C 20.660156 -17.320312 20.171875 -18.046875 19.546875 -18.671875 C 18.921875 -19.304688 18.191406 -19.800781 17.359375 -20.15625 C 16.535156 -20.519531 15.640625 -20.703125 14.671875 -20.703125 C 13.691406 -20.703125 12.789062 -20.519531 11.96875 -20.15625 C 11.144531 -19.800781 10.414062 -19.304688 9.78125 -18.671875 C 9.15625 -18.046875 8.660156 -17.320312 8.296875 -16.5 C 7.941406 -15.675781 7.765625 -14.773438 7.765625 -13.796875 Z M 7.765625 -13.796875 "/></g></g></g><g fill="#000000" fill-opacity="0.2392"><g transform="translate(195.913966, 74.942975)"><g><path d="M 15.09375 -8.296875 L 22 -15.203125 L 22 -24.15625 C 22 -25.09375 22.335938 -25.898438 23.015625 -26.578125 C 23.703125 -27.265625 24.515625 -27.609375 25.453125 -27.609375 C 26.390625 -27.609375 27.195312 -27.265625 27.875 -26.578125 C 28.5625 -25.898438 28.90625 -25.09375 28.90625 -24.15625 L 28.90625 -13.796875 C 28.90625 -12.867188 28.5625 -12.0625 27.875 -11.375 L 17.53125 -1.03125 C 17.207031 -0.664062 16.828125 -0.398438 16.390625 -0.234375 C 15.960938 -0.078125 15.53125 0 15.09375 0 C 14.664062 0 14.234375 -0.078125 13.796875 -0.234375 C 13.367188 -0.398438 12.992188 -0.664062 12.671875 -1.03125 L 2.3125 -11.375 C 1.632812 -12.0625 1.296875 -12.867188 1.296875 -13.796875 L 1.296875 -24.15625 C 1.296875 -25.09375 1.632812 -25.898438 2.3125 -26.578125 C 3 -27.265625 3.8125 -27.609375 4.75 -27.609375 C 5.675781 -27.609375 6.484375 -27.265625 7.171875 -26.578125 C 7.859375 -25.898438 8.203125 -25.09375 8.203125 -24.15625 L 8.203125 -15.203125 Z M 15.09375 -8.296875 "/></g></g></g><g fill="#000000" fill-opacity="0.2392"><g transform="translate(226.111772, 74.942975)"><g><path d="M 14.671875 0 C 12.765625 0 10.972656 -0.359375 9.296875 -1.078125 C 7.628906 -1.796875 6.164062 -2.785156 4.90625 -4.046875 C 3.644531 -5.304688 2.65625 -6.769531 1.9375 -8.4375 C 1.21875 -10.113281 0.859375 -11.898438 0.859375 -13.796875 C 0.859375 -15.703125 1.21875 -17.488281 1.9375 -19.15625 C 2.65625 -20.832031 3.644531 -22.300781 4.90625 -23.5625 C 6.164062 -24.820312 7.628906 -25.8125 9.296875 -26.53125 C 10.972656 -27.25 12.765625 -27.609375 14.671875 -27.609375 C 16.578125 -27.609375 18.363281 -27.25 20.03125 -26.53125 C 21.707031 -25.8125 23.171875 -24.820312 24.421875 -23.5625 C 25.679688 -22.300781 26.671875 -20.832031 27.390625 -19.15625 C 28.109375 -17.488281 28.46875 -15.703125 28.46875 -13.796875 C 28.46875 -12.867188 28.125 -12.0625 27.4375 -11.375 C 26.757812 -10.695312 25.953125 -10.359375 25.015625 -10.359375 L 8.6875 -10.359375 C 9.289062 -9.316406 10.113281 -8.476562 11.15625 -7.84375 C 12.195312 -7.21875 13.367188 -6.90625 14.671875 -6.90625 L 18.125 -6.90625 C 19.050781 -6.90625 19.851562 -6.5625 20.53125 -5.875 C 21.21875 -5.195312 21.5625 -4.390625 21.5625 -3.453125 C 21.5625 -2.515625 21.21875 -1.703125 20.53125 -1.015625 C 19.851562 -0.335938 19.050781 0 18.125 0 Z M 14.671875 -20.703125 C 13.367188 -20.703125 12.195312 -20.382812 11.15625 -19.75 C 10.113281 -19.125 9.289062 -18.289062 8.6875 -17.25 L 20.65625 -17.25 C 20.039062 -18.289062 19.203125 -19.125 18.140625 -19.75 C 17.078125 -20.382812 15.921875 -20.703125 14.671875 -20.703125 Z M 14.671875 -20.703125 "/></g></g></g><g fill="#000000" fill-opacity="0.2392"><g transform="translate(255.446783, 74.942975)"><g><path d="M 16.828125 -6.90625 C 17.328125 -6.90625 17.738281 -7.066406 18.0625 -7.390625 C 18.382812 -7.710938 18.546875 -8.125 18.546875 -8.625 C 18.546875 -9.125 18.382812 -9.535156 18.0625 -9.859375 C 17.738281 -10.191406 17.328125 -10.359375 16.828125 -10.359375 L 9.921875 -10.359375 C 8.734375 -10.359375 7.617188 -10.582031 6.578125 -11.03125 C 5.535156 -11.476562 4.617188 -12.097656 3.828125 -12.890625 C 3.035156 -13.679688 2.414062 -14.597656 1.96875 -15.640625 C 1.519531 -16.679688 1.296875 -17.796875 1.296875 -18.984375 C 1.296875 -20.171875 1.519531 -21.285156 1.96875 -22.328125 C 2.414062 -23.367188 3.035156 -24.285156 3.828125 -25.078125 C 4.617188 -25.867188 5.535156 -26.488281 6.578125 -26.9375 C 7.617188 -27.382812 8.734375 -27.609375 9.921875 -27.609375 L 20.28125 -27.609375 C 21.207031 -27.609375 22.007812 -27.265625 22.6875 -26.578125 C 23.375 -25.898438 23.71875 -25.09375 23.71875 -24.15625 C 23.71875 -23.21875 23.375 -22.40625 22.6875 -21.71875 C 22.007812 -21.039062 21.207031 -20.703125 20.28125 -20.703125 L 9.921875 -20.703125 C 9.421875 -20.703125 9.007812 -20.539062 8.6875 -20.21875 C 8.363281 -19.894531 8.203125 -19.484375 8.203125 -18.984375 C 8.203125 -18.472656 8.363281 -18.054688 8.6875 -17.734375 C 9.007812 -17.410156 9.421875 -17.25 9.921875 -17.25 L 16.828125 -17.25 C 18.015625 -17.25 19.128906 -17.023438 20.171875 -16.578125 C 21.210938 -16.128906 22.128906 -15.507812 22.921875 -14.71875 C 23.710938 -13.925781 24.332031 -13.007812 24.78125 -11.96875 C 25.226562 -10.925781 25.453125 -9.8125 25.453125 -8.625 C 25.453125 -7.4375 25.226562 -6.320312 24.78125 -5.28125 C 24.332031 -4.238281 23.710938 -3.320312 22.921875 -2.53125 C 22.128906 -1.738281 21.210938 -1.117188 20.171875 -0.671875 C 19.128906 -0.222656 18.015625 0 16.828125 0 L 4.75 0 C 3.8125 0 3 -0.335938 2.3125 -1.015625 C 1.632812 -1.703125 1.296875 -2.515625 1.296875 -3.453125 C 1.296875 -4.390625 1.632812 -5.195312 2.3125 -5.875 C 3 -6.5625 3.8125 -6.90625 4.75 -6.90625 Z M 16.828125 -6.90625 "/></g></g></g><g fill="#4df4ff" fill-opacity="1"><g transform="translate(128.871314, 72.178513)"><g><path d="M 5.609375 0 C 4.671875 0 3.859375 -0.335938 3.171875 -1.015625 C 2.492188 -1.703125 2.15625 -2.515625 2.15625 -3.453125 L 2.15625 -31.0625 C 2.15625 -32 2.492188 -32.804688 3.171875 -33.484375 C 3.859375 -34.171875 4.671875 -34.515625 5.609375 -34.515625 L 15.953125 -34.515625 C 18.328125 -34.515625 20.566406 -34.0625 22.671875 -33.15625 C 24.773438 -32.257812 26.609375 -31.03125 28.171875 -29.46875 C 29.734375 -27.90625 30.960938 -26.070312 31.859375 -23.96875 C 32.765625 -21.863281 33.21875 -19.625 33.21875 -17.25 C 33.21875 -14.882812 32.765625 -12.648438 31.859375 -10.546875 C 30.960938 -8.441406 29.734375 -6.609375 28.171875 -5.046875 C 26.609375 -3.484375 24.773438 -2.25 22.671875 -1.34375 C 20.566406 -0.445312 18.328125 0 15.953125 0 Z M 9.0625 -27.609375 L 9.0625 -6.90625 L 15.953125 -6.90625 C 17.398438 -6.90625 18.75 -7.171875 20 -7.703125 C 21.257812 -8.242188 22.359375 -8.984375 23.296875 -9.921875 C 24.234375 -10.859375 24.96875 -11.953125 25.5 -13.203125 C 26.039062 -14.460938 26.3125 -15.8125 26.3125 -17.25 C 26.3125 -18.6875 26.039062 -20.035156 25.5 -21.296875 C 24.96875 -22.554688 24.234375 -23.648438 23.296875 -24.578125 C 22.359375 -25.515625 21.257812 -26.253906 20 -26.796875 C 18.75 -27.335938 17.398438 -27.609375 15.953125 -27.609375 Z M 9.0625 -27.609375 "/></g></g></g><g fill="#4df4ff" fill-opacity="1"><g transform="translate(162.951698, 72.178513)"><g><path d="M 0.859375 -13.796875 C 0.859375 -15.703125 1.21875 -17.488281 1.9375 -19.15625 C 2.65625 -20.832031 3.644531 -22.300781 4.90625 -23.5625 C 6.164062 -24.820312 7.628906 -25.8125 9.296875 -26.53125 C 10.972656 -27.25 12.765625 -27.609375 14.671875 -27.609375 C 16.578125 -27.609375 18.363281 -27.25 20.03125 -26.53125 C 21.707031 -25.8125 23.171875 -24.820312 24.421875 -23.5625 C 25.679688 -22.300781 26.671875 -20.832031 27.390625 -19.15625 C 28.109375 -17.488281 28.46875 -15.703125 28.46875 -13.796875 C 28.46875 -12.546875 28.304688 -11.351562 27.984375 -10.21875 C 27.660156 -9.082031 27.210938 -7.992188 26.640625 -6.953125 C 27.316406 -6.671875 27.863281 -6.210938 28.28125 -5.578125 C 28.695312 -4.953125 28.90625 -4.242188 28.90625 -3.453125 C 28.90625 -2.367188 28.523438 -1.445312 27.765625 -0.6875 C 27.015625 0.0625 26.097656 0.4375 25.015625 0.4375 C 24.222656 0.4375 23.515625 0.226562 22.890625 -0.1875 C 22.265625 -0.601562 21.785156 -1.148438 21.453125 -1.828125 C 19.410156 -0.609375 17.148438 0 14.671875 0 C 12.765625 0 10.972656 -0.359375 9.296875 -1.078125 C 7.628906 -1.796875 6.164062 -2.785156 4.90625 -4.046875 C 3.644531 -5.304688 2.65625 -6.769531 1.9375 -8.4375 C 1.21875 -10.113281 0.859375 -11.898438 0.859375 -13.796875 Z M 7.765625 -13.796875 C 7.765625 -12.828125 7.941406 -11.929688 8.296875 -11.109375 C 8.660156 -10.285156 9.15625 -9.554688 9.78125 -8.921875 C 10.414062 -8.296875 11.144531 -7.800781 11.96875 -7.4375 C 12.789062 -7.082031 13.691406 -6.90625 14.671875 -6.90625 C 15.640625 -6.90625 16.535156 -7.082031 17.359375 -7.4375 C 18.191406 -7.800781 18.921875 -8.296875 19.546875 -8.921875 C 20.171875 -9.554688 20.660156 -10.285156 21.015625 -11.109375 C 21.378906 -11.929688 21.5625 -12.828125 21.5625 -13.796875 C 21.5625 -14.773438 21.378906 -15.675781 21.015625 -16.5 C 20.660156 -17.320312 20.171875 -18.046875 19.546875 -18.671875 C 18.921875 -19.304688 18.191406 -19.800781 17.359375 -20.15625 C 16.535156 -20.519531 15.640625 -20.703125 14.671875 -20.703125 C 13.691406 -20.703125 12.789062 -20.519531 11.96875 -20.15625 C 11.144531 -19.800781 10.414062 -19.304688 9.78125 -18.671875 C 9.15625 -18.046875 8.660156 -17.320312 8.296875 -16.5 C 7.941406 -15.675781 7.765625 -14.773438 7.765625 -13.796875 Z M 7.765625 -13.796875 "/></g></g></g><g fill="#4df4ff" fill-opacity="1"><g transform="translate(193.149503, 72.178513)"><g><path d="M 15.09375 -8.296875 L 22 -15.203125 L 22 -24.15625 C 22 -25.09375 22.335938 -25.898438 23.015625 -26.578125 C 23.703125 -27.265625 24.515625 -27.609375 25.453125 -27.609375 C 26.390625 -27.609375 27.195312 -27.265625 27.875 -26.578125 C 28.5625 -25.898438 28.90625 -25.09375 28.90625 -24.15625 L 28.90625 -13.796875 C 28.90625 -12.867188 28.5625 -12.0625 27.875 -11.375 L 17.53125 -1.03125 C 17.207031 -0.664062 16.828125 -0.398438 16.390625 -0.234375 C 15.960938 -0.078125 15.53125 0 15.09375 0 C 14.664062 0 14.234375 -0.078125 13.796875 -0.234375 C 13.367188 -0.398438 12.992188 -0.664062 12.671875 -1.03125 L 2.3125 -11.375 C 1.632812 -12.0625 1.296875 -12.867188 1.296875 -13.796875 L 1.296875 -24.15625 C 1.296875 -25.09375 1.632812 -25.898438 2.3125 -26.578125 C 3 -27.265625 3.8125 -27.609375 4.75 -27.609375 C 5.675781 -27.609375 6.484375 -27.265625 7.171875 -26.578125 C 7.859375 -25.898438 8.203125 -25.09375 8.203125 -24.15625 L 8.203125 -15.203125 Z M 15.09375 -8.296875 "/></g></g></g><g fill="#4df4ff" fill-opacity="1"><g transform="translate(223.347309, 72.178513)"><g><path d="M 14.671875 0 C 12.765625 0 10.972656 -0.359375 9.296875 -1.078125 C 7.628906 -1.796875 6.164062 -2.785156 4.90625 -4.046875 C 3.644531 -5.304688 2.65625 -6.769531 1.9375 -8.4375 C 1.21875 -10.113281 0.859375 -11.898438 0.859375 -13.796875 C 0.859375 -15.703125 1.21875 -17.488281 1.9375 -19.15625 C 2.65625 -20.832031 3.644531 -22.300781 4.90625 -23.5625 C 6.164062 -24.820312 7.628906 -25.8125 9.296875 -26.53125 C 10.972656 -27.25 12.765625 -27.609375 14.671875 -27.609375 C 16.578125 -27.609375 18.363281 -27.25 20.03125 -26.53125 C 21.707031 -25.8125 23.171875 -24.820312 24.421875 -23.5625 C 25.679688 -22.300781 26.671875 -20.832031 27.390625 -19.15625 C 28.109375 -17.488281 28.46875 -15.703125 28.46875 -13.796875 C 28.46875 -12.867188 28.125 -12.0625 27.4375 -11.375 C 26.757812 -10.695312 25.953125 -10.359375 25.015625 -10.359375 L 8.6875 -10.359375 C 9.289062 -9.316406 10.113281 -8.476562 11.15625 -7.84375 C 12.195312 -7.21875 13.367188 -6.90625 14.671875 -6.90625 L 18.125 -6.90625 C 19.050781 -6.90625 19.851562 -6.5625 20.53125 -5.875 C 21.21875 -5.195312 21.5625 -4.390625 21.5625 -3.453125 C 21.5625 -2.515625 21.21875 -1.703125 20.53125 -1.015625 C 19.851562 -0.335938 19.050781 0 18.125 0 Z M 14.671875 -20.703125 C 13.367188 -20.703125 12.195312 -20.382812 11.15625 -19.75 C 10.113281 -19.125 9.289062 -18.289062 8.6875 -17.25 L 20.65625 -17.25 C 20.039062 -18.289062 19.203125 -19.125 18.140625 -19.75 C 17.078125 -20.382812 15.921875 -20.703125 14.671875 -20.703125 Z M 14.671875 -20.703125 "/></g></g></g><g fill="#4df4ff" fill-opacity="1"><g transform="translate(252.68232, 72.178513)"><g><path d="M 16.828125 -6.90625 C 17.328125 -6.90625 17.738281 -7.066406 18.0625 -7.390625 C 18.382812 -7.710938 18.546875 -8.125 18.546875 -8.625 C 18.546875 -9.125 18.382812 -9.535156 18.0625 -9.859375 C 17.738281 -10.191406 17.328125 -10.359375 16.828125 -10.359375 L 9.921875 -10.359375 C 8.734375 -10.359375 7.617188 -10.582031 6.578125 -11.03125 C 5.535156 -11.476562 4.617188 -12.097656 3.828125 -12.890625 C 3.035156 -13.679688 2.414062 -14.597656 1.96875 -15.640625 C 1.519531 -16.679688 1.296875 -17.796875 1.296875 -18.984375 C 1.296875 -20.171875 1.519531 -21.285156 1.96875 -22.328125 C 2.414062 -23.367188 3.035156 -24.285156 3.828125 -25.078125 C 4.617188 -25.867188 5.535156 -26.488281 6.578125 -26.9375 C 7.617188 -27.382812 8.734375 -27.609375 9.921875 -27.609375 L 20.28125 -27.609375 C 21.207031 -27.609375 22.007812 -27.265625 22.6875 -26.578125 C 23.375 -25.898438 23.71875 -25.09375 23.71875 -24.15625 C 23.71875 -23.21875 23.375 -22.40625 22.6875 -21.71875 C 22.007812 -21.039062 21.207031 -20.703125 20.28125 -20.703125 L 9.921875 -20.703125 C 9.421875 -20.703125 9.007812 -20.539062 8.6875 -20.21875 C 8.363281 -19.894531 8.203125 -19.484375 8.203125 -18.984375 C 8.203125 -18.472656 8.363281 -18.054688 8.6875 -17.734375 C 9.007812 -17.410156 9.421875 -17.25 9.921875 -17.25 L 16.828125 -17.25 C 18.015625 -17.25 19.128906 -17.023438 20.171875 -16.578125 C 21.210938 -16.128906 22.128906 -15.507812 22.921875 -14.71875 C 23.710938 -13.925781 24.332031 -13.007812 24.78125 -11.96875 C 25.226562 -10.925781 25.453125 -9.8125 25.453125 -8.625 C 25.453125 -7.4375 25.226562 -6.320312 24.78125 -5.28125 C 24.332031 -4.238281 23.710938 -3.320312 22.921875 -2.53125 C 22.128906 -1.738281 21.210938 -1.117188 20.171875 -0.671875 C 19.128906 -0.222656 18.015625 0 16.828125 0 L 4.75 0 C 3.8125 0 3 -0.335938 2.3125 -1.015625 C 1.632812 -1.703125 1.296875 -2.515625 1.296875 -3.453125 C 1.296875 -4.390625 1.632812 -5.195312 2.3125 -5.875 C 3 -6.5625 3.8125 -6.90625 4.75 -6.90625 Z M 16.828125 -6.90625 "/></g></g></g></svg>